<?xml version="1.0" encoding="iso-8859-1"?>
<!-- Uploaded to: SVG Repo, www.svgrepo.com, Generator: SVG Repo Mixer Tools -->
<svg fill="#000000" height="800px" width="800px" version="1.1" id="Capa_1" xmlns="http://www.w3.org/2000/svg" xmlns:xlink="http://www.w3.org/1999/xlink" 
	 viewBox="0 0 612 612" xml:space="preserve">
<g>
	<g>
		<g>
			<path d="M368.132,270.077c0-34.316-27.819-62.134-62.131-62.134c-34.316,0-62.134,27.819-62.134,62.134
				c0,26.072,16.069,48.38,38.834,57.596v258.485h46.598V327.673C352.066,318.455,368.132,296.147,368.132,270.077z"/>
		</g>
		<g>
			<path d="M229.923,433.235c-4.383,0-8.832-0.932-13.069-2.899c-62.854-29.198-103.465-92.803-103.465-162.043
				c0-69.243,40.611-132.848,103.465-162.046c15.555-7.223,34.035-0.473,41.263,15.087c7.228,15.56,0.473,34.035-15.087,41.263
				c-41.01,19.051-67.51,60.539-67.51,105.697c0,45.156,26.5,86.645,67.51,105.693c15.56,7.228,22.315,25.703,15.087,41.263
				C252.859,426.575,241.638,433.235,229.923,433.235z"/>
		</g>
		<g>
			<path d="M382.535,433.028c-11.679,0-22.866-6.617-28.15-17.888c-7.282-15.537-0.591-34.033,14.944-41.313
				c40.791-19.121,67.149-60.543,67.149-105.532c0-44.991-26.356-86.415-67.148-105.533c-15.537-7.281-22.228-25.779-14.945-41.312
				c7.279-15.537,25.777-22.226,41.312-14.945c62.517,29.299,102.912,92.808,102.912,161.792c0,68.98-40.394,132.488-102.91,161.79
				C391.436,432.083,386.948,433.028,382.535,433.028z"/>
		</g>
		<g>
			<path d="M166.024,510.741c-4.383,0-8.832-0.932-13.069-2.899c-45.023-20.915-83.168-53.996-110.312-95.667
				C14.745,369.351,0,319.598,0,268.293s14.745-101.059,42.641-143.884c27.145-41.672,65.291-74.753,110.312-95.669
				c15.555-7.228,34.033-0.473,41.263,15.087c7.228,15.56,0.473,34.035-15.087,41.263c-71.074,33.017-117,104.927-117,183.203
				c0,78.274,45.926,150.182,117,183.199c15.56,7.228,22.315,25.703,15.087,41.263C188.955,504.08,177.738,510.741,166.024,510.741z
				"/>
		</g>
		<g>
			<path d="M446.701,510.413c-11.677,0-22.864-6.617-28.149-17.89c-7.282-15.535-0.591-34.031,14.945-41.312
				c70.692-33.135,116.372-104.932,116.372-182.916S504.189,118.512,433.497,85.38c-15.537-7.282-22.228-25.779-14.945-41.313
				c7.279-15.531,25.779-22.223,41.312-14.947c44.805,21,82.752,54.079,109.74,95.662C597.339,167.52,612,217.147,612,268.295
				s-14.661,100.773-42.397,143.513c-26.988,41.583-64.934,74.661-109.74,95.66C455.602,509.466,451.116,510.413,446.701,510.413z"
				/>
		</g>
	</g>
</g>
</svg>